Coordinates
version=1
nRows=29
nColumns=24
inDegrees=yes

Units are S.I. units (second, meters, Newtons, ...)
Angles are in degrees.

endheader
time	pelvis_tilt	pelvis_list	pelvis_rotation	pelvis_tx	pelvis_ty	pelvis_tz	hip_flexion_r	hip_adduction_r	hip_rotation_r	knee_angle_r	ankle_angle_r	subtalar_angle_r	mtp_angle_r	hip_flexion_l	hip_adduction_l	hip_rotation_l	knee_angle_l	ankle_angle_l	subtalar_angle_l	mtp_angle_l	lumbar_extension	lumbar_bending	lumbar_rotation
      1.70366667	      8.19776727	      6.05881685	     -7.18992452	      1.35685537	      1.02003421	      0.27131958	      1.62696794	    -10.33801326	      0.31715149	    -64.21068417	     -9.13777089	    -11.85657686	      1.11763830	      0.37584982	     11.93738071	      6.68659613	    -15.94068360	      4.79402618	    -21.67425792	     -7.73605806	    -20.81413197	     -1.48947568	      1.97387559
      1.70783333	      8.25573111	      5.80313612	     -7.00575553	      1.36175586	      1.02115760	      0.27091472	      2.09268702	     -9.96017890	      0.35321484	    -63.98793035	     -7.88809837	    -11.34421155	      1.15690552	     -0.29173760	     11.70539950	      7.02271419	    -15.44813749	      4.79104040	    -21.75613224	     -7.73413516	    -20.90503660	     -1.09064585	      1.70391934
      1.71200000	      8.30879878	      5.57484268	     -6.84248023	      1.36662008	      1.02221320	      0.27053786	      2.57219950	     -9.61834884	      0.39827269	    -63.74124275	     -6.64311505	    -10.86706516	      1.18818464	     -0.94882642	     11.49678526	      7.34209798	    -14.94155706	      4.74363505	    -21.85349710	     -7.73411686	    -20.99393169	     -0.72375566	      1.41320466
      1.71616667	      8.38246523	      5.37104667	     -6.67510535	      1.37146670	      1.02324530	      0.27014931	      3.02636290	     -9.31542667	      0.42422307	    -63.46178462	     -5.42678262	    -10.44493628	      1.20446985	     -1.63447876	     11.31467992	      7.69148379	    -14.40688583	      4.61998184	    -22.04242569	     -7.74176772	    -21.10422712	     -0.37903521	      1.06079384
      1.72033333	      8.44089094	      5.12685102	     -6.51974851	      1.37632985	      1.02424116	      0.26979316	      3.47892992	     -8.95915844	      0.47502460	    -63.11774489	     -4.31423948	     -9.99577049	      1.21374165	     -2.29328148	     11.07733448	      7.97572674	    -13.90263465	      4.60105303	    -22.12238432	     -7.74603066	    -21.19264893	      0.00020512	      0.83569611
      1.72450000	      8.49928806	      4.90704912	     -6.36047777	      1.38118659	      1.02517295	      0.26944244	      3.93127542	     -8.63419302	      0.51440700	    -62.74878734	     -3.25103945	     -9.60741360	      1.21437242	     -2.94860907	     10.86080882	      8.26426791	    -13.39836675	      4.56098800	    -22.21158583	     -7.75231488	    -21.27909617	      0.35166818	      0.57118999
      1.72866667	      8.57256630	      4.70051709	     -6.20322711	      1.38598278	      1.02607505	      0.26909350	      4.36174516	     -8.33115703	      0.54450285	    -62.33999221	     -2.21264696	     -9.29943770	      1.18866052	     -3.61969386	     10.65647738	      8.57498195	    -12.86528802	      4.44074316	    -22.36405181	     -7.76638204	    -21.39743723	      0.68424487	      0.26410996
      1.73283333	      8.61049916	      4.46907832	     -6.06043951	      1.39083192	      1.02689250	      0.26878062	      4.82058244	     -7.99013298	      0.60459669	    -61.88404183	     -1.28816488	     -8.97536029	      1.17180187	     -4.24387231	     10.41433011	      8.81184068	    -12.37021801	      4.43470105	    -22.41376245	     -7.77434821	    -21.45432368	      1.04583936	      0.07506953
      1.73700000	      8.67222494	      4.26541373	     -5.92283875	      1.39563482	      1.02767081	      0.26847696	      5.25363738	     -7.69264692	      0.65080338	    -61.40280520	     -0.37166100	     -8.69084053	      1.14804578	     -4.88102473	     10.20156034	      9.05016385	    -11.88005321	      4.38684932	    -22.48285546	     -7.78299483	    -21.55758065	      1.37181950	     -0.16105438
      1.74116667	      8.71765574	      4.06737893	     -5.77580790	      1.40040246	      1.02837874	      0.26817678	      5.69963912	     -7.39830401	      0.69109960	    -60.88818822	      0.44343433	     -8.49640130	      1.10858177	     -5.49529752	      9.98818131	      9.29015217	    -11.39603607	      4.33922407	    -22.55976315	     -7.79586205	    -21.62155721	      1.69050915	     -0.40259544
      1.74533333	      8.76525827	      3.86359082	     -5.63778410	      1.40521166	      1.02905580	      0.26789507	      6.12229317	     -7.09991666	      0.73628766	    -60.32131297	      1.22344548	     -8.33508190	      1.05989726	     -6.11094924	      9.76513920	      9.50825630	    -10.91508309	      4.29317655	    -22.62791520	     -7.80876406	    -21.69635598	      2.01440275	     -0.62842123
      1.74950000	      8.80026108	      3.68922791	     -5.49012556	      1.40997072	      1.02964278	      0.26761395	      6.56027806	     -6.83482029	      0.77415629	    -59.73484326	      1.95563108	     -8.24490827	      0.88616878	     -6.70429798	      9.57188073	      9.78579571	    -10.43236765	      4.17071816	    -22.81125943	     -7.84427780	    -21.75922704	      2.30344519	     -0.89433112
      1.75366667	      8.82595132	      3.49647281	     -5.37460803	      1.41472972	      1.03017301	      0.26740271	      7.00325965	     -6.54271706	      0.84981502	    -59.10788722	      2.61341752	     -8.15258501	      0.84298666	     -7.26712542	      9.34937959	      9.91584491	     -9.99322525	      4.18902553	    -22.76758468	     -7.85327050	    -21.82003716	      2.59113489	     -1.02696865
      1.75783333	      8.86410546	      3.31350035	     -5.23395619	      1.41949943	      1.03067125	      0.26714401	      7.41478235	     -6.27846576	      0.87802007	    -58.44131428	      3.22499369	     -8.12252237	      0.78015171	     -7.84591356	      9.13677662	     10.09435263	     -9.55198216	      4.18344642	    -22.78088849	     -7.86409474	    -21.88174162	      2.90194014	     -1.26335547
      1.76200000	      8.89941660	      3.15094612	     -5.09083300	      1.42424027	      1.03110313	      0.26690798	      7.82168462	     -6.03513565	      0.90871019	    -57.74650835	      3.79135204	     -8.17227373	      0.67911776	     -8.40563039	      8.94279236	     10.28133169	     -9.12882333	      4.13644731	    -22.83130630	     -7.87850324	    -21.94327901	      3.16970231	     -1.51049271
      1.76616667	      8.89312648	      2.99224979	     -4.95806596	      1.42891677	      1.03141252	      0.26669504	      8.27580915	     -5.79040447	      0.95935501	    -57.03320579	      4.33242147	     -8.22138300	      0.64575911	     -8.88319248	      8.74877830	     10.39700456	     -8.77618825	      4.16662160	    -22.79884573	     -7.88287895	    -21.97123904	      3.42451765	     -1.60507527
      1.77033333	      8.95204090	      2.82706470	     -4.82526395	      1.43366202	      1.03179769	      0.26648868	      8.62763911	     -5.55373934	      0.99401482	    -56.24925466	      4.75893465	     -8.30786591	      0.56254667	     -9.47997301	      8.54784197	     10.58781827	     -8.32563897	      4.14994506	    -22.82815528	     -7.89236056	    -22.05482600	      3.70564945	     -1.88265034
      1.77450000	      8.95497650	      2.68467120	     -4.67325785	      1.43835880	      1.03202821	      0.26626729	      9.04085076	     -5.34130174	      1.01304068	    -55.45821039	      5.17140184	     -8.45400723	      0.46622379	     -9.97840238	      8.36519437	     10.77070991	     -7.94651101	      4.13725289	    -22.87172776	     -7.90156190	    -22.08126517	      3.95972404	     -2.11171450
      1.77866667	      8.92134122	      2.57198557	     -4.54586650	      1.44301312	      1.03212302	      0.26608598	      9.50609706	     -5.16231886	      1.05231967	    -54.67122750	      5.61417810	     -8.59887418	      0.42721091	    -10.40660576	      8.21229139	     10.87064232	     -7.61309358	      4.16224321	    -22.83067935	     -7.90338800	    -22.08782610	      4.16325909	     -2.20947653
      1.78283333	      8.96198215	      2.42689754	     -4.39448417	      1.44771991	      1.03232671	      0.26588991	      9.83631233	     -4.95580215	      1.07025842	    -53.78255903	      5.90365465	     -8.81124959	      0.31949173	    -10.94413144	      8.02520783	     11.06634273	     -7.24534084	      4.17818032	    -22.86478146	     -7.90996785	    -22.14275934	      4.41962423	     -2.51558547
      1.78700000	      8.96462349	      2.30934351	     -4.24213770	      1.45236064	      1.03242153	      0.26571019	     10.21581619	     -4.78148004	      1.08482935	    -52.89120437	      6.19899934	     -9.05824347	      0.17941635	    -11.42346727	      7.85941380	     11.24046259	     -6.88347242	      4.15807979	    -22.88550758	     -7.91719956	    -22.18402447	      4.63794727	     -2.74963493
      1.79116667	      8.93744018	      2.19298295	     -4.08079614	      1.45701020	      1.03242379	      0.26551454	     10.60879923	     -4.61698369	      1.08166646	    -51.96435603	      6.47607900	     -9.25729772	      0.10593235	    -11.84240312	      7.69257342	     11.36885506	     -6.58659557	      4.21440182	    -22.86695247	     -7.91982210	    -22.17473955	      4.85064621	     -2.89405628
      1.79533333	      8.95979887	      2.08702112	     -3.93794995	      1.46167684	      1.03244231	      0.26535910	     10.93995900	     -4.46813656	      1.09153169	    -51.00761184	      6.65433733	     -9.56053959	     -0.01836339	    -12.34509217	      7.53683913	     11.52696296	     -6.22060099	      4.24051380	    -22.86311113	     -7.92370048	    -22.22772400	      5.06642045	     -3.16557351
      1.79950000	      8.94655176	      1.99336547	     -3.77834847	      1.46630842	      1.03236140	      0.26518637	     11.29673816	     -4.33967222	      1.08191672	    -50.02523674	      6.83414993	     -9.83439111	     -0.14136397	    -12.77926335	      7.38972486	     11.67565507	     -5.91386528	      4.28959714	    -22.85351027	     -7.92567174	    -22.24096386	      5.26441914	     -3.39015416
      1.80366667	      8.91150730	      1.91970596	     -3.61493340	      1.47091366	      1.03222075	      0.26502463	     11.66545198	     -4.23630967	      1.06854054	    -49.01306456	      7.00957705	    -10.09915558	     -0.23324083	    -13.17356455	      7.26006691	     11.81416980	     -5.63291262	      4.33490443	    -22.82676518	     -7.92758026	    -22.23289926	      5.43618638	     -3.56954137
      1.80783333	      8.91850040	      1.83398478	     -3.47524952	      1.47553524	      1.03209045	      0.26490290	     11.97259282	     -4.12562764	      1.06207918	    -47.95717168	      7.07259908	    -10.43440874	     -0.36756906	    -13.64156052	      7.11827789	     11.95731361	     -5.28953914	      4.38176578	    -22.81260902	     -7.92955074	    -22.27575926	      5.62019513	     -3.82631135
      1.81200000	      8.89229039	      1.77924323	     -3.32185753	      1.48017868	      1.03187115	      0.26478104	     12.30097526	     -4.05362102	      1.04446281	    -46.88304687	      7.17425746	    -10.73077600	     -0.52908370	    -14.05265535	      7.00422210	     12.10025502	     -4.98953471	      4.42848985	    -22.78292482	     -7.93451461	    -22.27892121	      5.76854415	     -4.06690648
      1.81616667	      8.87335440	      1.71006370	     -3.16817620	      1.48478721	      1.03163965	      0.26463834	     12.60245001	     -3.97945060	      1.00190807	    -45.75852238	      7.22740312	    -11.00383207	     -0.63329469	    -14.46484216	      6.87536975	     12.21820024	     -4.70170078	      4.51289970	    -22.74100448	     -7.93573094	    -22.27680979	      5.94443651	     -4.23169868
      1.82033333	      8.85332417	      1.67745994	     -3.04113436	      1.48938647	      1.03134187	      0.26456887	     12.90762175	     -3.94021979	      0.98830154	    -44.62946291	      7.23153253	    -11.31079052	     -0.75430659	    -14.87710695	      6.78589333	     12.32408573	     -4.40193681	      4.58811295	    -22.70038822	     -7.93981076	    -22.28621088	      6.05861046	     -4.45318804
